<svg width="82" height="82" viewBox="0 0 82 82" fill="none" xmlns="http://www.w3.org/2000/svg">
<g clip-path="url(#clip0_470_228)">
<path fill-rule="evenodd" clip-rule="evenodd" d="M50.1504 73.5496V79.6011H68.0466V72.0447C68.0466 67.2259 68.7286 62.4314 70.0722 57.8038L70.0749 57.7946L70.5546 56.1905C70.2932 56.1034 70.0256 56.0194 69.752 55.9383L61.5678 54.3467L60.8816 55.3444C60.1812 56.3623 59.2124 57.7692 58.1382 59.3258C55.9909 62.4376 53.4198 66.1518 51.7332 68.549C50.7063 70.0085 50.1542 71.7469 50.1504 73.5313L50.1504 73.5496ZM61.2299 51.8337C61.245 51.8363 61.2601 51.8393 61.2752 51.8425L70.2668 53.591C70.3038 53.5982 70.3405 53.6072 70.3767 53.6178C73.1916 54.4465 75.7041 55.6331 77.5203 57.4557C79.3735 59.3154 80.4198 61.7562 80.4198 64.8909V77.1089C80.4198 79.8121 78.2283 82.0034 75.5251 82.0034H69.2478H48.9493H48.9492H28.6506H22.3732C19.6699 82.0034 17.4785 79.8121 17.4785 77.1089V72.1372C17.4785 71.4738 18.0163 70.936 18.6797 70.936C19.3431 70.936 19.8809 71.4738 19.8809 72.1372V77.1089C19.8809 78.4852 20.9967 79.6011 22.3732 79.6011H27.4494V72.0447C27.4494 67.4541 26.8 62.8868 25.5204 58.4782L25.1039 57.0852C23.8961 57.6656 22.8811 58.3471 22.0798 59.1513C20.7033 60.5327 19.8809 62.351 19.8809 64.8909V67.3584C19.8809 68.0218 19.3431 68.5596 18.6797 68.5596C18.0163 68.5596 17.4785 68.0218 17.4785 67.3584V64.8909C17.4785 61.7562 18.5249 59.3154 20.378 57.4556C22.1942 55.633 24.7067 54.4464 27.5214 53.6177C27.5576 53.607 27.5943 53.5981 27.6314 53.5909L41.0755 50.9765V47.967C40.5681 47.6222 40.0979 47.2575 39.6644 46.8843C37.2094 44.7703 35.7483 41.7833 35.4045 38.6276C33.6279 38.4875 32.2297 37.0014 32.2297 35.1888V32.7207C31.0695 32.2177 30.2578 31.0622 30.2578 29.7169C30.2578 28.1649 31.3383 26.8653 32.7881 26.5291V25.5766C32.7881 17.0102 39.7324 10.0658 48.2987 10.0658H49.5994C58.1657 10.0658 65.11 17.0102 65.11 25.5766V26.529C66.5601 26.865 67.6408 28.1647 67.6408 29.7169C67.6408 31.0624 66.829 32.2179 65.6686 32.7208V35.1888C65.6686 37.0014 64.2704 38.4876 62.4937 38.6276C62.1501 41.7833 60.6889 44.7704 58.2339 46.8843L58.2339 46.8843C57.8004 47.2576 57.3302 47.6222 56.8228 47.967V50.9767L61.2299 51.8337ZM27.8235 57.7946L27.3437 56.1903C27.6051 56.1033 27.8726 56.0193 28.1461 55.9381L36.3307 54.3465L37.017 55.3444C37.7173 56.3622 38.6861 57.7692 39.7603 59.3258C41.9076 62.4376 44.4786 66.1518 46.1653 68.549C47.192 70.0082 47.7441 71.7463 47.7481 73.5303L47.748 73.5496V79.6011H29.8517V72.0447C29.8517 67.2259 29.1698 62.4314 27.8262 57.8038L27.8235 57.7945L27.8235 57.7946ZM38.9024 53.8464L41.307 53.3788C41.5416 54.0944 41.9321 54.7413 42.3737 55.305C43.0945 56.2248 44.0258 57.019 44.9086 57.658C45.4618 58.0585 46.0123 58.4096 46.5073 58.703L44.6 59.8466L44.5999 59.8467C44.1908 60.0918 43.6801 60.0653 43.3089 59.7894C43.1696 59.6859 43.0153 59.6171 42.8562 59.5814C42.4756 59.0306 42.1006 58.4875 41.7375 57.9614C40.6642 56.4059 39.696 54.9999 38.9961 53.9827L38.9024 53.8464ZM45.8351 61.9071C45.4972 62.1097 45.1341 62.2519 44.761 62.3337C46.0077 64.132 47.2036 65.8499 48.13 67.1666C48.4367 67.6024 48.7101 68.0577 48.9492 68.5287C49.1883 68.0577 49.4618 67.6024 49.7684 67.1666C50.6949 65.8499 51.8908 64.1319 53.1374 62.3337C52.7644 62.2519 52.4014 62.1097 52.0635 61.9071L52.0633 61.907L48.9492 60.0399L45.8353 61.907L45.8351 61.9071ZM48.4771 57.0579C48.6544 57.1536 48.8136 57.2363 48.9492 57.3049C49.0848 57.2363 49.2439 57.1536 49.4212 57.0579C50.0165 56.7367 50.8024 56.2757 51.5811 55.712C52.3665 55.1435 53.1033 54.4999 53.6336 53.8231C54.1682 53.141 54.4205 52.5193 54.4205 51.9668V51.9637V49.2897C52.852 49.9663 51.0359 50.4094 48.9625 50.4325H48.9357C46.8624 50.4094 45.0463 49.9663 43.4778 49.2897V51.9666L43.4778 51.9714C43.4792 52.5228 43.7316 53.1429 44.2647 53.8232C44.795 54.5 45.5318 55.1435 46.3172 55.712C47.096 56.2757 47.8819 56.7366 48.4771 57.0579ZM50.1482 58.5678C50.1434 58.4862 50.1303 58.4063 50.1097 58.3292L53.2986 59.8466L51.3912 58.7029C51.8861 58.4095 52.4365 58.0584 52.9898 57.658C53.8725 57.019 54.8038 56.2247 55.5246 55.3049C55.9662 54.7413 56.3566 54.0944 56.5912 53.379L58.996 53.8466L58.9025 53.9826C58.2026 54.9999 57.2343 56.4059 56.161 57.9614C55.7979 58.4875 55.4229 59.0306 55.0423 59.5814C54.8833 59.617 54.7289 59.6859 54.5897 59.7893C54.2181 60.0653 53.7077 60.0918 53.2987 59.8467L53.2986 59.8466L50.1066 58.9606C50.1416 58.8348 50.1563 58.7023 50.1482 58.5678ZM42.9732 46.3321C42.929 46.3006 42.8826 46.272 42.8342 46.2466C42.2491 45.8814 41.7157 45.4804 41.2319 45.0638C39.033 43.1704 37.7939 40.3612 37.7305 37.4114C37.7165 36.7582 37.1829 36.236 36.5296 36.236H35.6793C35.101 36.236 34.6321 35.7671 34.6321 35.1888V32.9893H63.2663V35.1888C63.2663 35.7671 62.7973 36.236 62.219 36.236H61.3686C60.7152 36.236 60.1817 36.7583 60.1677 37.4115C60.1044 40.3612 58.8653 43.1704 56.6664 45.0638C56.1825 45.4804 55.649 45.8815 55.0639 46.2467C55.0157 46.2721 54.9693 46.3006 54.9252 46.3321C53.3239 47.3026 51.3452 48.0009 48.9491 48.0302C46.5532 48.0009 44.5745 47.3026 42.9732 46.3321ZM70.449 79.6011V72.0447C70.449 67.4541 71.0984 62.8868 72.3779 58.4782L72.7945 57.0853C74.0023 57.6657 75.0172 58.3472 75.8186 59.1514C77.195 60.5327 78.0174 62.351 78.0174 64.8909V77.1089C78.0174 78.4852 76.9016 79.6011 75.5251 79.6011H70.449ZM75.4398 49.2827H62.1255C61.4621 49.2827 60.9243 48.7449 60.9243 48.0815C60.9243 47.4182 61.4621 46.8804 62.1255 46.8804H75.4398C76.0295 46.8804 76.5078 46.4022 76.5078 45.8121C76.5078 45.2223 76.0296 44.744 75.4398 44.744H73.8536L73.8386 44.7441L73.8236 44.744H64.9053C64.2419 44.744 63.7041 44.2063 63.7041 43.5429C63.7041 42.8795 64.2419 42.3417 64.9053 42.3417H72.6375V6.93799H7.4187V42.3417H32.9668C33.6302 42.3417 34.168 42.8795 34.168 43.5429C34.168 44.2063 33.6302 44.744 32.9668 44.744H6.23251L6.21753 44.7441L6.20254 44.744H5.05075C4.46091 44.744 3.98267 45.2223 3.98267 45.8121C3.98267 46.4022 4.46097 46.8804 5.05075 46.8804H35.9614C36.6248 46.8804 37.1626 47.4182 37.1626 48.0815C37.1626 48.7449 36.6248 49.2827 35.9614 49.2827H5.05075C3.13408 49.2827 1.58032 47.7288 1.58032 45.8121C1.58032 43.907 3.11559 42.3603 5.01636 42.3419V6.93782C3.1155 6.91928 1.58032 5.37264 1.58032 3.4674C1.58032 1.55074 3.13419 -0.00302124 5.05091 -0.00302124H75.4399C77.3565 -0.00302124 78.9103 1.55079 78.9103 3.4674C78.9103 5.38412 77.3566 6.93799 75.4399 6.93799H75.0398V42.3417H75.4398C77.3564 42.3417 78.9102 43.8955 78.9102 45.8121C78.9102 47.7288 77.3564 49.2827 75.4398 49.2827ZM73.8103 4.53564L73.8178 4.53548L73.8386 4.53532C73.8481 4.53532 73.8576 4.53542 73.867 4.53564H75.4399C76.0297 4.53564 76.508 4.05745 76.508 3.4674C76.508 2.87757 76.0297 2.39932 75.4399 2.39932H5.05091C4.46086 2.39932 3.98267 2.87762 3.98267 3.4674C3.98267 4.0574 4.46091 4.53564 5.05091 4.53564H6.18918C6.1986 4.53542 6.20805 4.53532 6.21753 4.53532L6.23047 4.53539L6.24588 4.53564H73.8103ZM12.8001 17.8545C11.7437 17.8545 10.8872 16.9983 10.8872 15.9417V11.2831C10.8872 10.2269 11.7434 9.37022 12.8001 9.37022H20.3414C21.3978 9.37022 22.2543 10.2267 22.2543 11.2831V15.9417C22.2543 16.9985 21.3974 17.8545 20.3414 17.8545H12.8001ZM13.2896 11.7726V15.4521H19.852V11.7726H13.2896ZM10.8872 27.0739C10.8872 28.1301 11.7434 28.9868 12.8001 28.9868H20.3414C21.3978 28.9868 22.2543 28.1303 22.2543 27.0739V22.4154C22.2543 21.3594 21.3982 20.5024 20.3414 20.5024H12.8001C11.743 20.5024 10.8872 21.3596 10.8872 22.4154V27.0739ZM13.2896 26.5845V22.9047H19.852V26.5845H13.2896ZM12.8001 40.1191C11.7437 40.1191 10.8872 39.263 10.8872 38.2064V33.5478C10.8872 32.4915 11.7434 31.6349 12.8001 31.6349H20.3414C21.3978 31.6349 22.2543 32.4914 22.2543 33.5478V38.2064C22.2543 39.2632 21.3974 40.1191 20.3414 40.1191H12.8001ZM13.2896 34.0372V37.7168H19.852V34.0372H13.2896ZM34.0109 28.847L33.9893 28.8472L33.9676 28.847H33.5301C33.0497 28.847 32.6602 29.2365 32.6602 29.7169C32.6602 30.1975 33.0496 30.5869 33.5301 30.5869H64.3684C64.8491 30.5869 65.2385 30.1974 65.2385 29.7169C65.2385 29.2366 64.849 28.847 64.3684 28.847H63.9305L63.9088 28.8472L63.8872 28.847H34.0109ZM35.1904 26.4446V25.5766C35.1904 18.3369 41.0592 12.4681 48.2987 12.4681H49.5994C56.8389 12.4681 62.7077 18.3369 62.7077 25.5766V26.4446H35.1904ZM55.4973 75.9907C54.3626 75.9907 53.4431 75.0708 53.4431 73.9366V71.5297C53.4431 70.3952 54.3629 69.4757 55.4973 69.4757H62.5613C63.6957 69.4757 64.6153 70.3953 64.6153 71.5297V73.9366C64.6153 75.0707 63.696 75.9907 62.5613 75.9907H55.4973ZM55.8455 71.8781V73.5884H62.213V71.8781H55.8455Z" fill="url(#paint0_linear_470_228)"/>
</g>
<defs>
<linearGradient id="paint0_linear_470_228" x1="80" y1="5.5" x2="41" y2="82.0034" gradientUnits="userSpaceOnUse">
<stop stop-color="#03224C"/>
<stop offset="1" stop-color="#0045A3"/>
</linearGradient>
<clipPath id="clip0_470_228">
<rect width="82" height="82" fill="white"/>
</clipPath>
</defs>
</svg>
