<svg width="82" height="82" viewBox="0 0 82 82" fill="none" xmlns="http://www.w3.org/2000/svg">
<g clip-path="url(#clip0_470_196)">
<path fill-rule="evenodd" clip-rule="evenodd" d="M18.1785 4.8045L2.40234 4.80422V7.20656L18.1785 7.20684L18.1785 4.8045ZM18.1784 9.60919L2.40234 9.60891V12.0113L18.1784 12.0115L18.1784 9.60919ZM18.1783 14.4139L2.40234 14.4136V16.8159L18.1782 16.8162L18.1783 14.4139ZM18.3833 19.2186L1.20115 19.2183C0.53777 19.2183 0 18.6805 0 18.0171V13.2124V8.40769V3.60303C0 3.28445 0.126555 2.97893 0.351823 2.75366C0.577091 2.5284 0.882619 2.40185 1.20119 2.40186L18.3836 2.40216C18.8784 1.00259 20.2132 0 21.7821 0C23.3512 0 24.6859 1.0028 25.1805 2.40237L38.5976 2.40266C39.261 2.40268 39.7988 2.94047 39.7988 3.60386C39.7987 4.26725 39.2609 4.80502 38.5976 4.80501L25.3855 4.80471L25.3853 16.8164L36.1695 16.8167L36.196 16.8164L36.2225 16.8167L45.7699 16.8169L45.7927 16.8165L45.8054 16.8164C45.8172 16.8164 45.8291 16.8166 45.8409 16.8169L56.6157 16.8172L56.616 4.80562L43.4023 4.80518C42.7389 4.80515 42.2011 4.26735 42.2012 3.60396C42.2012 2.94058 42.739 2.40281 43.4024 2.40283L56.8211 2.40328C57.3158 1.00363 58.6506 0.000976562 60.2196 0.000976562C61.7882 0.000976562 63.1226 1.0032 63.6176 2.40216L80.7988 2.40186C81.1174 2.40185 81.4229 2.5284 81.6482 2.75366C81.8734 2.97893 82 3.28445 82 3.60303V8.40769V13.2124V18.0171C82 18.6805 81.4622 19.2183 80.7989 19.2183L63.6181 19.2186C63.1238 20.6188 61.7886 21.6221 60.2192 21.6221C58.6501 21.6221 57.3153 20.6192 56.8207 19.2195L47.0065 19.2193L47.0064 24.1448C48.4924 25.6613 49.4087 27.7383 49.4087 30.0293C49.4087 33.3836 47.4446 36.2791 44.6037 37.6285L44.6035 41.6238L57.3583 57.8161L68.7867 57.8164C69.45 57.8164 69.9878 58.3542 69.9878 59.0176C69.9878 59.681 69.45 60.2187 68.7866 60.2187L57.9762 60.2185L57.9762 62.6208L71.1891 62.6211L79.5975 62.6212L79.5976 60.2189L73.5913 60.2187C72.9279 60.2187 72.3901 59.6809 72.3901 59.0175C72.3902 58.3541 72.928 57.8164 73.5913 57.8164L80.7989 57.8165C81.1174 57.8166 81.423 57.9431 81.6482 58.1684C81.8735 58.3937 82 58.6992 82 59.0178L81.9998 63.8224C81.9998 64.4858 81.462 65.0236 80.7986 65.0236L72.3903 65.0234L72.3902 74.7929L80.7985 74.7931C81.1171 74.7931 81.4226 74.9197 81.6479 75.1449C81.8731 75.3702 81.9997 75.6757 81.9997 75.9943L81.9995 80.799C81.9995 81.4624 81.4617 82.0002 80.7983 82.0001L1.20115 81.9985C0.537768 81.9985 0 81.4607 0 80.7974V75.9927C0 75.6741 0.126554 75.3686 0.351822 75.1433C0.57709 74.918 0.882618 74.7915 1.20119 74.7915L9.60875 74.7916L9.60888 65.0221L1.20115 65.022C0.537771 65.022 0 64.4842 0 63.8208V59.0161C0 58.6975 0.126555 58.392 0.351824 58.1667C0.577093 57.9415 0.882622 57.8149 1.2012 57.8149L24.641 57.8154L27.6471 53.9994C29.6997 51.3939 33.476 50.9457 36.0815 52.9982C36.6027 53.4088 36.6923 54.164 36.2818 54.6851C35.8713 55.2062 35.116 55.2959 34.5949 54.8854C33.0316 53.6538 30.7658 53.9227 29.5342 55.4861L27.6992 57.8155L54.3001 57.8161L43.7279 44.3946C43.0672 45.1594 42.0901 45.6434 41 45.6434C39.9098 45.6434 38.9327 45.1593 38.272 44.3944L36.1745 47.057C34.1219 49.6625 30.3458 50.1107 27.7401 48.0582C27.219 47.6477 27.1293 46.8924 27.5398 46.3713C27.9503 45.8502 28.7056 45.7605 29.2267 46.171C30.7902 47.4026 33.0558 47.1336 34.2874 45.5703L37.3965 41.6236L37.3966 37.6282C34.5561 36.2786 32.5923 33.3833 32.5923 30.0293C32.5923 27.7383 33.5086 25.6613 34.9946 24.1448L34.9948 19.219L25.1802 19.2188C24.6855 20.6184 23.3507 21.6211 21.7817 21.6211C20.2126 21.6211 18.8779 20.6182 18.3833 19.2186ZM2.40234 60.2173L24.0228 60.2178L24.0227 62.62L15.6148 62.6198C15.2962 62.6198 14.9907 62.7463 14.7654 62.9716C14.5401 63.1968 14.4136 63.5024 14.4136 63.8209L14.4134 75.9928C14.4134 76.6562 14.9512 77.194 15.6146 77.194L24.0228 77.1942L24.0227 79.5966L2.40234 79.5962V77.1939L10.8099 77.194C11.1285 77.194 11.434 77.0675 11.6593 76.8422C11.8845 76.6169 12.0111 76.3114 12.0111 75.9929L12.0112 63.821C12.0112 63.1576 11.4735 62.6198 10.8101 62.6198L2.40234 62.6196V60.2173ZM55.5738 62.6207L26.4251 62.62L26.4252 60.2178L55.5739 60.2184L55.5738 62.6207ZM42.2012 42.0298L42.2011 42.0482C42.1967 42.7079 41.6607 43.2411 41 43.2411C40.3366 43.2411 39.7988 42.7033 39.7988 42.0399V42.0399L39.7989 38.3523C40.1914 38.4084 40.5925 38.4375 41.0005 38.4375C41.4082 38.4375 41.8091 38.4085 42.2013 38.3524L42.2012 42.0298ZM55.5738 65.023L16.8159 65.0222L16.8158 74.7917L25.1937 74.7919C25.2038 74.7916 25.2139 74.7915 25.2241 74.7915L25.2417 74.7916L25.2544 74.7919L55.5736 74.7925L55.5738 65.023ZM55.5735 77.1949L26.4252 77.1942L26.4251 79.5967L55.5734 79.5973L55.5735 77.1949ZM57.9758 79.5973L57.9758 77.1949L71.175 77.1952L71.1889 77.1953L71.2029 77.1952L79.5973 77.1954L79.5972 79.5978L57.9758 79.5973ZM57.9759 74.7926L57.9761 65.0231L69.9879 65.0233L69.9878 74.7929L57.9759 74.7926ZM39.0195 35.7008C39.0054 35.6955 38.9912 35.6905 38.9769 35.6857C36.6555 34.8552 34.9946 32.6362 34.9946 30.0293C34.9946 26.7124 37.6835 24.0234 41.0005 24.0234C44.3174 24.0234 47.0064 26.7124 47.0064 30.0293C47.0064 32.6319 45.3509 34.8478 43.0356 35.6816C43.0131 35.6888 42.9909 35.6966 42.969 35.7051C42.3523 35.919 41.69 36.0352 41.0005 36.0352C40.3064 36.0352 39.6397 35.9174 39.0195 35.7008ZM37.3971 19.2191L44.6041 19.2192L44.6041 22.4303C43.5119 21.9114 42.2901 21.6211 41.0005 21.6211C39.7109 21.6211 38.4892 21.9114 37.397 22.4302L37.3971 19.2191ZM59.0183 18.0184L59.0182 18.0356V18.0062L59.0183 18.0184ZM59.0182 18.0062L59.0181 17.9939L59.0184 3.60452L59.0182 18.0062ZM59.0182 18.0356L60.2196 2.40332C60.8723 2.40332 61.4033 2.92386 61.4203 3.57246C61.4201 3.58273 61.4199 3.59303 61.4199 3.60337C61.4199 3.61825 61.4202 3.63306 61.4207 3.64781L61.4206 8.36655L61.4202 8.384L61.4199 8.40806C61.4199 8.42191 61.4202 8.43572 61.4206 8.44946L61.4205 13.1745L61.42 13.1982L61.4199 13.2127C61.4199 13.2255 61.4201 13.2382 61.4205 13.2509L61.4204 17.9828C61.4201 17.9943 61.4199 18.0058 61.4199 18.0174L61.4202 18.0424C61.4074 18.6949 60.8747 19.2197 60.2192 19.2197C59.5615 19.2197 59.0273 18.6912 59.0182 18.0356ZM79.5977 7.20656L63.823 7.20684L63.823 4.8045L79.5977 4.80422V7.20656ZM63.8229 12.0115L63.8229 9.60919L79.5977 9.60891V12.0113L63.8229 12.0115ZM63.8228 16.8162L63.8228 14.4139L79.5977 14.4136V16.8159L63.8228 16.8162ZM22.9832 3.5941L22.9832 3.60349L22.9832 3.61717L22.9829 18.0176C22.9829 18.681 22.4451 19.2188 21.7817 19.2188C21.1186 19.2188 20.5807 18.6811 20.5806 18.0176V18.0174L20.5809 3.60354V3.60352C20.5809 2.94006 21.1187 2.40234 21.7821 2.40234C22.4424 2.40234 22.9781 2.93504 22.9832 3.5941ZM39.7993 30.0293C39.7993 29.3659 40.3371 28.8281 41.0005 28.8281C41.6639 28.8281 42.2017 29.3659 42.2017 30.0293C42.2017 30.6927 41.6639 31.2305 41.0005 31.2305C40.3371 31.2305 39.7993 30.6927 39.7993 30.0293ZM41.0005 26.4258C39.0103 26.4258 37.397 28.0391 37.397 30.0293C37.397 32.0195 39.0103 33.6328 41.0005 33.6328C42.9907 33.6328 44.604 32.0195 44.604 30.0293C44.604 28.0391 42.9907 26.4258 41.0005 26.4258ZM53.0125 9.61035C53.6758 9.61035 54.2136 9.07257 54.2136 8.40918C54.2136 7.74579 53.6758 7.20801 53.0125 7.20801C52.3491 7.20801 51.8113 7.74579 51.8113 8.40918C51.8113 9.07257 52.3491 9.61035 53.0125 9.61035ZM30.1902 8.4082C30.1902 9.07159 29.6524 9.60938 28.989 9.60938C28.3256 9.60938 27.7878 9.07159 27.7878 8.4082C27.7878 7.74481 28.3256 7.20703 28.989 7.20703C29.6524 7.20703 30.1902 7.74481 30.1902 8.4082ZM53.0125 14.415C53.6758 14.415 54.2136 13.8773 54.2136 13.2139C54.2136 12.5505 53.6758 12.0127 53.0125 12.0127C52.3491 12.0127 51.8113 12.5505 51.8113 13.2139C51.8113 13.8773 52.3491 14.415 53.0125 14.415ZM30.1902 13.2129C30.1902 13.8763 29.6524 14.4141 28.989 14.4141C28.3256 14.4141 27.7878 13.8763 27.7878 13.2129C27.7878 12.5495 28.3256 12.0117 28.989 12.0117C29.6524 12.0117 30.1902 12.5495 30.1902 13.2129Z" fill="url(#paint0_linear_470_196)"/>
</g>
<defs>
<linearGradient id="paint0_linear_470_196" x1="78.5" y1="3" x2="6" y2="82" gradientUnits="userSpaceOnUse">
<stop stop-color="#03224C"/>
<stop offset="1" stop-color="#0045A3"/>
</linearGradient>
<clipPath id="clip0_470_196">
<rect width="82" height="82" fill="white"/>
</clipPath>
</defs>
</svg>
