<svg width="82" height="82" viewBox="0 0 82 82" fill="none" xmlns="http://www.w3.org/2000/svg">
<path d="M59.1169 63.9344C59.4567 63.9344 59.7826 63.7994 60.0229 63.5591C60.2631 63.3188 60.3981 62.9929 60.3981 62.6531C60.3981 62.3133 60.2631 61.9874 60.0229 61.7471C59.7826 61.5069 59.4567 61.3719 59.1169 61.3719H54.2097L52.2494 59.3988H56.375C56.7148 59.3988 57.0407 59.2638 57.281 59.0235C57.5213 58.7832 57.6562 58.4573 57.6562 58.1175C57.6562 57.7777 57.5213 57.4518 57.281 57.2115C57.0407 56.9712 56.7148 56.8363 56.375 56.8363H49.6869L44.4594 51.6216L44.6131 51.25H52.0059L56.7466 56.0034C56.9878 56.2447 57.3151 56.3802 57.6562 56.3802C57.9974 56.3802 58.3247 56.2447 58.5659 56.0034C58.8072 55.7622 58.9427 55.4349 58.9427 55.0938C58.9427 54.7526 58.8072 54.4253 58.5659 54.1841L55.6191 51.25H58.4122L61.8716 54.7222C61.9913 54.8409 62.1333 54.9349 62.2894 54.9986C62.4455 55.0624 62.6126 55.0947 62.7812 55.0938C63.0357 55.0952 63.2849 55.0209 63.497 54.8802C63.709 54.7395 63.8744 54.5389 63.972 54.3038C64.0696 54.0688 64.095 53.81 64.0449 53.5605C63.9949 53.311 63.8716 53.082 63.6909 52.9028L60.7441 49.9688L63.6909 47.0347C63.9322 46.7934 64.0677 46.4662 64.0677 46.125C64.0677 45.7838 63.9322 45.4566 63.6909 45.2153C63.4497 44.974 63.1224 44.8385 62.7812 44.8385C62.4401 44.8385 62.1128 44.974 61.8716 45.2153L58.4122 48.6875H55.6191L58.5659 45.7534C58.8072 45.5122 58.9427 45.1849 58.9427 44.8438C58.9427 44.5026 58.8072 44.1753 58.5659 43.9341C58.3247 43.6928 57.9974 43.5573 57.6562 43.5573C57.3151 43.5573 56.9878 43.6928 56.7466 43.9341L52.0059 48.6875H44.6131L44.4594 48.3159L49.6869 43.1012H56.375C56.7148 43.1012 57.0407 42.9663 57.281 42.726C57.5213 42.4857 57.6562 42.1598 57.6562 41.82C57.6562 41.4802 57.5213 41.1543 57.281 40.914C57.0407 40.6737 56.7148 40.5387 56.375 40.5387H52.2494L54.2097 38.5656H59.1169C59.4567 38.5656 59.7826 38.4306 60.0229 38.1904C60.2631 37.9501 60.3981 37.6242 60.3981 37.2844C60.3981 36.9446 60.2631 36.6187 60.0229 36.3784C59.7826 36.1381 59.4567 36.0031 59.1169 36.0031H54.9656V31.8519C54.9656 31.5121 54.8306 31.1862 54.5904 30.9459C54.3501 30.7056 54.0242 30.5706 53.6844 30.5706C53.3446 30.5706 53.0187 30.7056 52.7784 30.9459C52.5381 31.1862 52.4031 31.5121 52.4031 31.8519V36.7591L50.43 38.7194V34.5938C50.43 34.2539 50.295 33.928 50.0547 33.6878C49.8145 33.4475 49.4886 33.3125 49.1488 33.3125C48.8089 33.3125 48.4831 33.4475 48.2428 33.6878C48.0025 33.928 47.8675 34.2539 47.8675 34.5938V41.3075L42.6528 46.5094L42.2812 46.3556V38.9628L47.0347 34.2222C47.276 33.9809 47.4115 33.6537 47.4115 33.3125C47.4115 32.9713 47.276 32.6441 47.0347 32.4028C46.7934 32.1615 46.4662 32.026 46.125 32.026C45.7838 32.026 45.4566 32.1615 45.2153 32.4028L42.2812 35.3497V32.5566L45.7534 29.0972C45.9947 28.8559 46.1302 28.5287 46.1302 28.1875C46.1302 27.8463 45.9947 27.5191 45.7534 27.2778C45.5122 27.0365 45.1849 26.901 44.8438 26.901C44.5026 26.901 44.1753 27.0365 43.9341 27.2778L41 30.2247L38.0659 27.2778C37.8247 27.0365 37.4974 26.901 37.1562 26.901C36.8151 26.901 36.4878 27.0365 36.2466 27.2778C36.0053 27.5191 35.8698 27.8463 35.8698 28.1875C35.8698 28.5287 36.0053 28.8559 36.2466 29.0972L39.7188 32.5566V35.3497L36.7847 32.4028C36.5434 32.1615 36.2162 32.026 35.875 32.026C35.5338 32.026 35.2066 32.1615 34.9653 32.4028C34.724 32.6441 34.5885 32.9713 34.5885 33.3125C34.5885 33.6537 34.724 33.9809 34.9653 34.2222L39.7188 38.9628V46.3556L39.3472 46.5094L34.1325 41.2819V34.5938C34.1325 34.2539 33.9975 33.928 33.7572 33.6878C33.517 33.4475 33.1911 33.3125 32.8512 33.3125C32.5114 33.3125 32.1856 33.4475 31.9453 33.6878C31.705 33.928 31.57 34.2539 31.57 34.5938V38.745L29.5969 36.7591V31.8519C29.5969 31.5121 29.4619 31.1862 29.2216 30.9459C28.9813 30.7056 28.6554 30.5706 28.3156 30.5706C27.9758 30.5706 27.6499 30.7056 27.4096 30.9459C27.1694 31.1862 27.0344 31.5121 27.0344 31.8519V36.0031H22.8831C22.5433 36.0031 22.2174 36.1381 21.9771 36.3784C21.7369 36.6187 21.6019 36.9446 21.6019 37.2844C21.6019 37.6242 21.7369 37.9501 21.9771 38.1904C22.2174 38.4306 22.5433 38.5656 22.8831 38.5656H27.7903L29.7506 40.5387H25.625C25.2852 40.5387 24.9593 40.6737 24.719 40.914C24.4787 41.1543 24.3438 41.4802 24.3438 41.82C24.3438 42.1598 24.4787 42.4857 24.719 42.726C24.9593 42.9663 25.2852 43.1012 25.625 43.1012H32.3387L37.5662 48.3159L37.4125 48.6875H29.9941L25.2534 43.9341C25.0122 43.6928 24.6849 43.5573 24.3438 43.5573C24.0026 43.5573 23.6753 43.6928 23.4341 43.9341C23.1928 44.1753 23.0573 44.5026 23.0573 44.8438C23.0573 45.1849 23.1928 45.5122 23.4341 45.7534L26.3809 48.6875H23.5878L20.1284 45.2153C19.8872 44.974 19.5599 44.8385 19.2188 44.8385C18.8776 44.8385 18.5503 44.974 18.3091 45.2153C18.0678 45.4566 17.9323 45.7838 17.9323 46.125C17.9323 46.4662 18.0678 46.7934 18.3091 47.0347L21.2559 49.9688L18.3091 52.9028C18.1284 53.082 18.0051 53.311 17.9551 53.5605C17.905 53.81 17.9304 54.0688 18.028 54.3038C18.1256 54.5389 18.291 54.7395 18.503 54.8802C18.7151 55.0209 18.9643 55.0952 19.2188 55.0938C19.3874 55.0947 19.5545 55.0624 19.7106 54.9986C19.8667 54.9349 20.0087 54.8409 20.1284 54.7222L23.5878 51.25H26.3809L23.4341 54.1841C23.1928 54.4253 23.0573 54.7526 23.0573 55.0938C23.0573 55.4349 23.1928 55.7622 23.4341 56.0034C23.6753 56.2447 24.0026 56.3802 24.3438 56.3802C24.6849 56.3802 25.0122 56.2447 25.2534 56.0034L29.9941 51.25H37.3869L37.5406 51.6216L32.3131 56.8363H25.625C25.2852 56.8363 24.9593 56.9712 24.719 57.2115C24.4787 57.4518 24.3438 57.7777 24.3438 58.1175C24.3438 58.4573 24.4787 58.7832 24.719 59.0235C24.9593 59.2638 25.2852 59.3988 25.625 59.3988H29.7762L27.7903 61.3719H22.8831C22.5433 61.3719 22.2174 61.5069 21.9771 61.7471C21.7369 61.9874 21.6019 62.3133 21.6019 62.6531C21.6019 62.9929 21.7369 63.3188 21.9771 63.5591C22.2174 63.7994 22.5433 63.9344 22.8831 63.9344H27.0344V68.0856C27.0344 68.4254 27.1694 68.7513 27.4096 68.9916C27.6499 69.2319 27.9758 69.3669 28.3156 69.3669C28.6554 69.3669 28.9813 69.2319 29.2216 68.9916C29.4619 68.7513 29.5969 68.4254 29.5969 68.0856V63.1784L31.57 61.2181V65.3438C31.57 65.6836 31.705 66.0094 31.9453 66.2497C32.1856 66.49 32.5114 66.625 32.8512 66.625C33.1911 66.625 33.517 66.49 33.7572 66.2497C33.9975 66.0094 34.1325 65.6836 34.1325 65.3438V58.6556L39.3472 53.4281L39.7188 53.5819V60.9747L34.9653 65.7153C34.724 65.9566 34.5885 66.2838 34.5885 66.625C34.5885 66.9662 34.724 67.2934 34.9653 67.5347C35.2066 67.776 35.5338 67.9115 35.875 67.9115C36.2162 67.9115 36.5434 67.776 36.7847 67.5347L39.7188 64.5878V67.3809L36.2466 70.8403C36.0053 71.0816 35.8698 71.4088 35.8698 71.75C35.8698 72.0912 36.0053 72.4184 36.2466 72.6597C36.4878 72.9009 36.8151 73.0365 37.1562 73.0365C37.4974 73.0365 37.8247 72.9009 38.0659 72.6597L41 69.7128L43.9341 72.6597C44.1753 72.9009 44.5026 73.0365 44.8438 73.0365C45.1849 73.0365 45.5122 72.9009 45.7534 72.6597C45.9947 72.4184 46.1302 72.0912 46.1302 71.75C46.1302 71.4088 45.9947 71.0816 45.7534 70.8403L42.2812 67.3809V64.5878L45.2153 67.5347C45.4566 67.776 45.7838 67.9115 46.125 67.9115C46.4662 67.9115 46.7934 67.776 47.0347 67.5347C47.276 67.2934 47.4115 66.9662 47.4115 66.625C47.4115 66.2838 47.276 65.9566 47.0347 65.7153L42.2812 60.9747V53.5819L42.6528 53.4281L47.8675 58.6556V65.3438C47.8675 65.6836 48.0025 66.0094 48.2428 66.2497C48.4831 66.49 48.8089 66.625 49.1488 66.625C49.4886 66.625 49.8145 66.49 50.0547 66.2497C50.295 66.0094 50.43 65.6836 50.43 65.3438V61.2181L52.4031 63.1784V68.0856C52.4031 68.4254 52.5381 68.7513 52.7784 68.9916C53.0187 69.2319 53.3446 69.3669 53.6844 69.3669C54.0242 69.3669 54.3501 69.2319 54.5904 68.9916C54.8306 68.7513 54.9656 68.4254 54.9656 68.0856V63.9344H59.1169ZM39.7188 49.9688C39.7188 49.6289 39.8537 49.3031 40.094 49.0628C40.3343 48.8225 40.6602 48.6875 41 48.6875C41.3398 48.6875 41.6657 48.8225 41.906 49.0628C42.1463 49.3031 42.2812 49.6289 42.2812 49.9688C42.2812 50.3086 42.1463 50.6344 41.906 50.8747C41.6657 51.115 41.3398 51.25 41 51.25C40.6602 51.25 40.3343 51.115 40.094 50.8747C39.8537 50.6344 39.7188 50.3086 39.7188 49.9688ZM74.3125 11.5312H70.4688V8.96875C70.4688 7.60952 69.9288 6.30595 68.9677 5.34483C68.0065 4.3837 66.703 3.84375 65.3438 3.84375C63.9845 3.84375 62.681 4.3837 61.7198 5.34483C60.7587 6.30595 60.2188 7.60952 60.2188 8.96875V11.5312H46.125V8.96875C46.125 7.60952 45.585 6.30595 44.6239 5.34483C43.6628 4.3837 42.3592 3.84375 41 3.84375C39.6408 3.84375 38.3372 4.3837 37.3761 5.34483C36.415 6.30595 35.875 7.60952 35.875 8.96875V11.5312H21.7812V8.96875C21.7812 7.60952 21.2413 6.30595 20.2802 5.34483C19.319 4.3837 18.0155 3.84375 16.6562 3.84375C15.297 3.84375 13.9935 4.3837 13.0323 5.34483C12.0712 6.30595 11.5312 7.60952 11.5312 8.96875V11.5312H7.6875C6.66807 11.5312 5.6904 11.9362 4.96956 12.6571C4.24872 13.3779 3.84375 14.3556 3.84375 15.375V74.3125C3.84375 75.3319 4.24872 76.3096 4.96956 77.0304C5.6904 77.7513 6.66807 78.1562 7.6875 78.1562H74.3125C75.3319 78.1562 76.3096 77.7513 77.0304 77.0304C77.7513 76.3096 78.1562 75.3319 78.1562 74.3125V15.375C78.1562 14.3556 77.7513 13.3779 77.0304 12.6571C76.3096 11.9362 75.3319 11.5312 74.3125 11.5312ZM62.7812 8.96875C62.7812 8.28913 63.0512 7.63735 63.5318 7.15679C64.0123 6.67623 64.6641 6.40625 65.3438 6.40625C66.0234 6.40625 66.6752 6.67623 67.1557 7.15679C67.6363 7.63735 67.9062 8.28913 67.9062 8.96875V13.8759C67.9151 14.4657 67.7361 15.043 67.3953 15.5244C67.0544 16.0058 66.5693 16.3663 66.01 16.5538H65.9459C65.5716 16.6443 65.1816 16.6493 64.805 16.5683C64.4285 16.4874 64.075 16.3226 63.7709 16.0862C63.4668 15.8498 63.2199 15.5479 63.0486 15.203C62.8772 14.858 62.7859 14.4789 62.7812 14.0938V8.96875ZM38.4375 8.96875C38.4375 8.28913 38.7075 7.63735 39.188 7.15679C39.6686 6.67623 40.3204 6.40625 41 6.40625C41.6796 6.40625 42.3314 6.67623 42.812 7.15679C43.2925 7.63735 43.5625 8.28913 43.5625 8.96875V13.8759C43.5713 14.4657 43.3924 15.043 43.0515 15.5244C42.7106 16.0058 42.2255 16.3663 41.6663 16.5538H41.6022C41.2278 16.6443 40.8379 16.6493 40.4613 16.5683C40.0847 16.4874 39.7313 16.3226 39.4272 16.0862C39.1231 15.8498 38.8762 15.5479 38.7048 15.203C38.5335 14.858 38.4421 14.4789 38.4375 14.0938V8.96875ZM14.0938 8.96875C14.0938 8.28913 14.3637 7.63735 14.8443 7.15679C15.3249 6.67623 15.9766 6.40625 16.6562 6.40625C17.3359 6.40625 17.9876 6.67623 18.4682 7.15679C18.9488 7.63735 19.2188 8.28913 19.2188 8.96875V13.8759C19.2276 14.4657 19.0486 15.043 18.7078 15.5244C18.3669 16.0058 17.8818 16.3663 17.3225 16.5538C16.9439 16.6557 16.5469 16.6694 16.1621 16.5938C15.7774 16.5182 15.4151 16.3553 15.1032 16.1177C14.7913 15.88 14.5381 15.574 14.3631 15.2231C14.1881 14.8722 14.0959 14.4859 14.0938 14.0938V8.96875ZM6.40625 15.375C6.40625 15.0352 6.54124 14.7093 6.78152 14.469C7.0218 14.2287 7.34769 14.0938 7.6875 14.0938H11.5312C11.5312 15.453 12.0712 16.7565 13.0323 17.7177C13.9935 18.6788 15.297 19.2188 16.6562 19.2188C18.0155 19.2188 19.319 18.6788 20.2802 17.7177C21.2413 16.7565 21.7812 15.453 21.7812 14.0938H35.875C35.875 15.453 36.415 16.7565 37.3761 17.7177C38.3372 18.6788 39.6408 19.2188 41 19.2188C42.3592 19.2188 43.6628 18.6788 44.6239 17.7177C45.585 16.7565 46.125 15.453 46.125 14.0938H60.2188C60.2188 15.453 60.7587 16.7565 61.7198 17.7177C62.681 18.6788 63.9845 19.2188 65.3438 19.2188C66.703 19.2188 68.0065 18.6788 68.9677 17.7177C69.9288 16.7565 70.4688 15.453 70.4688 14.0938H74.3125C74.6523 14.0938 74.9782 14.2287 75.2185 14.469C75.4588 14.7093 75.5938 15.0352 75.5938 15.375V21.7812H6.40625V15.375ZM26.0991 25.1509C24.9893 25.878 23.7345 26.3545 22.4219 26.5475C20.8293 26.6979 19.3505 27.4386 18.2765 28.6241C17.2024 29.8096 16.6107 31.3541 16.6178 32.9537C16.3359 34.8116 16.3231 35.0678 14.6447 34.6066C11.6209 33.5303 9.16094 35.2344 8.23844 38.13C7.89141 39.1484 7.24915 40.0404 6.39344 40.6925V24.3438H27.0728C26.7653 24.6384 26.4194 24.8819 26.0991 25.1509ZM7.6875 75.5938C7.34769 75.5938 7.0218 75.4588 6.78152 75.2185C6.54124 74.9782 6.40625 74.6523 6.40625 74.3125V43.8444C7.95279 43.0433 9.23768 41.8162 10.1091 40.3081C11.0187 38.3734 11.3903 36.1312 13.9528 37.1178C14.4841 37.3299 15.054 37.428 15.6256 37.406C16.1973 37.3839 16.7579 37.2421 17.2712 36.9897C19.9362 35.4394 18.4372 32.3259 20.1797 30.3016C21.6147 28.7128 24.0234 29.2381 26.1631 28.0594C27.8664 27.1864 29.331 25.911 30.4297 24.3438H75.5938V47.4062C70.7506 50.5453 66.9581 55.6319 67.7525 61.5641C67.8422 63.5244 67.8422 64.6903 66.9197 65.7922C64.6134 68.3547 60.2188 66.6506 57.9509 69.6359C57.3649 70.4985 56.9673 71.4749 56.784 72.5015C56.6008 73.528 56.6361 74.5817 56.8875 75.5938H7.6875ZM74.3125 75.5938H59.5141C58.835 72.3778 59.3988 70.2894 63.2681 70.0075C65.4033 69.9104 67.4184 68.9923 68.8928 67.445C70.4688 65.5359 70.4688 63.4731 70.315 61.5C69.6872 57.2078 72.1344 53.1078 75.5938 50.6478V74.3125C75.5938 74.6523 75.4588 74.9782 75.2185 75.2185C74.9782 75.4588 74.6523 75.5938 74.3125 75.5938Z" fill="url(#paint0_linear_470_253)"/>
<defs>
<linearGradient id="paint0_linear_470_253" x1="78" y1="11.5" x2="4" y2="73" gradientUnits="userSpaceOnUse">
<stop stop-color="#03224C"/>
<stop offset="1" stop-color="#0045A3"/>
</linearGradient>
</defs>
</svg>
