<svg width="82" height="82" viewBox="0 0 82 82" fill="none" xmlns="http://www.w3.org/2000/svg">
<g clip-path="url(#clip0_470_259)">
<path d="M39.935 23.2492C38.4085 21.7314 35.9315 21.738 34.4136 23.2646C34.4131 23.2652 34.4125 23.2658 34.4118 23.2665L28.3731 29.3619L26.8089 27.837C26.0613 27.1099 25.0733 26.7135 24.0324 26.7318C22.9896 26.7462 22.0148 27.1658 21.2877 27.9134C19.7867 29.4568 19.8209 31.9337 21.3633 33.4337L25.6987 37.6592C26.4532 38.3934 27.4365 38.7597 28.4199 38.7597C29.4254 38.7595 30.431 38.3764 31.1909 37.6123L39.95 28.7709C40.6855 28.0315 41.0889 27.0499 41.086 26.0069C41.0833 24.964 40.6744 23.9846 39.935 23.2492ZM38.1316 26.9656L29.3725 35.8069C28.8566 36.3259 28.0104 36.3328 27.4868 35.8234L23.1512 31.5977C22.6208 31.0816 22.6091 30.2304 23.125 29.7C23.3748 29.4431 23.7099 29.2988 24.0683 29.2938C24.0747 29.2936 24.0811 29.2936 24.0873 29.2936C24.4387 29.2936 24.7701 29.4282 25.0215 29.6727L27.4948 32.0837C27.9987 32.5748 28.8043 32.568 29.2993 32.0679L36.2307 25.0714C36.7523 24.5468 37.6036 24.5442 38.1282 25.0662C38.3824 25.3187 38.5229 25.6554 38.5238 26.0138C38.5246 26.3722 38.3859 26.7097 38.1316 26.9656ZM81.5921 72.3443L74.3951 59.8788C74.6235 59.5992 74.9317 59.3816 75.3024 59.2531C77.1609 58.6096 78.6723 56.9887 79.3454 54.917C80.0186 52.8453 79.7487 50.6455 78.6233 49.0326C78.1293 48.3247 78.1293 47.4451 78.6233 46.7372C79.7487 45.1243 80.0187 42.9245 79.3456 40.8529C78.6724 38.781 77.161 37.16 75.3026 36.5165C74.4868 36.234 73.9698 35.5224 73.9533 34.6595C73.9158 32.6931 72.8411 30.7548 71.0788 29.4743C69.3166 28.194 67.1412 27.771 65.259 28.3426C64.4333 28.5936 63.5966 28.3221 63.0759 27.6333C62.5588 26.9493 61.885 26.3857 61.1092 25.9674V10.6929C61.1092 10.2269 60.8562 9.79751 60.4484 9.57185C48.8376 3.14622 39.6425 0.280701 30.6342 0.280701C30.6337 0.280701 30.6347 0.280701 30.6342 0.280701C21.6264 0.280701 12.4301 3.14654 0.820167 9.57185C0.41241 9.79735 0.159363 10.2267 0.159363 10.6928V32.3342C0.159363 41.0025 3.72796 47.9626 10.766 53.021L29.8864 66.7632C30.1099 66.9238 30.372 67.004 30.6342 67.004C30.8964 67.004 31.1586 66.9238 31.382 66.7632L40.992 59.8561C40.9982 59.8635 41.0038 59.8715 41.0101 59.879L33.8133 72.3445C33.453 72.9686 33.4863 73.7224 33.9001 74.3118C34.314 74.9012 35.0113 75.1888 35.7214 75.0612L42.7388 73.8028L45.1578 80.5097C45.4024 81.1875 46.0001 81.6482 46.7174 81.7122C46.7736 81.7171 46.8297 81.7195 46.8851 81.7195C47.5379 81.7195 48.1326 81.3789 48.4646 80.8036L54.7009 70.0022C55.6098 70.4158 56.6353 70.6417 57.7022 70.6417H57.7024C58.7693 70.6417 59.795 70.4157 60.7039 70.002L66.9402 80.8036C67.2724 81.3789 67.8669 81.7197 68.5197 81.7195C68.5752 81.7195 68.6313 81.7171 68.6875 81.7122C69.4048 81.6484 70.0024 81.1875 70.2469 80.5094L72.6659 73.8028L79.6835 75.0612C80.393 75.1888 81.091 74.9012 81.505 74.3116C81.9191 73.722 81.9524 72.9681 81.5921 72.3443ZM30.6342 64.1449L12.2614 50.94C5.93139 46.3905 2.7217 40.1305 2.7217 32.3341V11.4505C23.7579 -0.0368882 37.5104 -0.0370483 58.5467 11.4506V25.176C58.2692 25.1446 57.9876 25.1278 57.7029 25.1278C57.7027 25.1278 57.703 25.1278 57.7029 25.1278C57.17 25.1278 56.6474 25.1847 56.1445 25.2923V13.6578C56.1445 13.1806 55.8796 12.7433 55.457 12.5222C36.8976 2.81886 24.3703 2.81886 5.8116 12.5222C5.38894 12.7433 5.12405 13.1808 5.12405 13.6578V32.3342C5.12405 39.4114 7.91733 44.8594 13.6636 48.9893L29.8863 60.649C30.1097 60.8097 30.3719 60.8899 30.6341 60.8899C30.8962 60.8899 31.1584 60.8097 31.3818 60.649L36.9026 56.6812C37.3581 57.3777 37.9236 57.9752 38.5669 58.4434L30.6342 64.1449ZM36.0597 40.8524C35.8479 41.504 35.7299 42.168 35.7019 42.8225C34.0971 43.4816 32.3963 43.8158 30.6342 43.8158C23.2584 43.8158 17.2576 37.8151 17.2576 30.4392C17.2576 23.0634 23.2584 17.0627 30.6342 17.0627C37.7591 17.0627 43.6219 22.6901 43.9912 29.733C42.4289 31.0075 41.487 32.8209 41.452 34.6592C41.4355 35.5224 40.9185 36.234 40.103 36.5165C38.2444 37.1596 36.7328 38.7807 36.0597 40.8524ZM46.4429 28.4037C45.4376 20.5783 38.7173 14.5 30.6342 14.5C21.8455 14.5 14.6951 21.6503 14.6951 30.4391C14.6951 39.2278 21.8455 46.3782 30.6342 46.3782C32.5231 46.3782 34.3535 46.0545 36.0957 45.4171C36.2692 45.8865 36.4982 46.3303 36.7817 46.7366C37.2756 47.4446 37.2756 48.3242 36.7818 49.0321C35.7746 50.4753 35.4549 52.3887 35.8808 54.2596L30.6341 58.0305L15.159 46.9083C10.1307 43.2943 7.68639 38.527 7.68639 32.3339V14.4366C24.9589 5.55721 36.309 5.55737 53.5819 14.4368V26.4169C53.1041 26.7624 52.68 27.1692 52.3295 27.633C51.8088 28.3217 50.972 28.5934 50.1464 28.3425C48.9691 27.9847 47.6769 28.0164 46.4429 28.4037ZM47.0336 78.1573L44.7824 71.9159C44.5705 71.3284 43.9659 70.9794 43.3509 71.0895L36.8204 72.2605L41.9541 63.3685C42.4385 64.4928 43.254 65.516 44.3263 66.295C46.0883 67.5753 48.2637 67.9983 50.146 67.4267C50.9721 67.1757 51.8086 67.4473 52.3291 68.1359C52.4201 68.2563 52.5176 68.3716 52.6181 68.4844L47.0336 78.1573ZM57.7025 68.0788C56.3225 68.0788 55.0777 67.5225 54.3731 66.5905C53.488 65.4201 52.153 64.7726 50.7519 64.7726C50.3041 64.7726 49.8496 64.8387 49.4008 64.9752C48.2833 65.3147 46.949 65.0335 45.8326 64.2221C44.7161 63.4111 44.0363 62.2293 44.014 61.0613C43.977 59.1253 42.7707 57.4651 40.9409 56.8317C39.8366 56.4493 38.9229 55.4374 38.4964 54.1249C38.0701 52.8124 38.2147 51.4569 38.8834 50.4987C39.9912 48.9107 39.9912 46.8586 38.8834 45.2707C38.2149 44.3125 38.0703 42.9569 38.4968 41.6443C38.9233 40.3318 39.837 39.3199 40.9411 38.9378C42.7709 38.3045 43.977 36.6442 44.014 34.708C44.0364 33.54 44.7163 32.3584 45.8326 31.5472C46.9492 30.736 48.2834 30.4548 49.401 30.7943C51.254 31.3577 53.2052 30.7232 54.3732 29.1787C55.0779 28.2469 56.3226 27.6905 57.7027 27.6905C59.0828 27.6905 60.3273 28.247 61.032 29.1788C62.1999 30.7232 64.1512 31.3571 66.0042 30.7943C67.122 30.4549 68.4562 30.7362 69.5725 31.5474C70.689 32.3584 71.3688 33.5402 71.3911 34.7082C71.4281 36.6442 72.6344 38.3044 74.4642 38.9378C75.5683 39.3201 76.4821 40.3319 76.9085 41.6444C77.3348 42.9569 77.1904 44.3125 76.5217 45.2707C75.4137 46.8586 75.4137 48.9109 76.5217 50.4988C77.1902 51.457 77.3348 52.8126 76.9083 54.1252C76.4818 55.4377 75.5681 56.4496 74.4642 56.8317C72.6344 57.465 71.4281 59.1251 71.3911 61.0613C71.3688 62.2295 70.689 63.4111 69.5725 64.2221C68.4559 65.0335 67.1218 65.3147 66.0042 64.9752C64.1512 64.4124 62.1999 65.0461 61.032 66.5907C60.3272 67.5225 59.0826 68.079 57.7025 68.0788ZM72.0541 71.0895C71.4395 70.978 70.8347 71.3283 70.6227 71.9159L68.3715 78.1572L62.787 68.4845C62.8874 68.3718 62.9848 68.2565 63.0758 68.1362C63.5965 67.4475 64.4333 67.1759 65.2589 67.4268C67.1407 67.9991 69.3163 67.5756 71.0786 66.2952C72.1509 65.5162 72.9666 64.4928 73.4509 63.3685L78.5847 72.2605L72.0541 71.0895ZM72.6975 47.8846C72.6975 39.6164 65.9708 32.8898 57.7025 32.8898C49.4343 32.8898 42.7078 39.6164 42.7078 47.8846C42.7078 56.1528 49.4343 62.8795 57.7025 62.8795C65.9708 62.8795 72.6975 56.1528 72.6975 47.8846ZM57.7025 60.317C50.8474 60.317 45.2703 54.7399 45.2703 47.8846C45.2703 41.0294 50.8474 35.4523 57.7025 35.4523C64.5579 35.4523 70.135 41.0294 70.135 47.8846C70.135 54.7399 64.5579 60.317 57.7025 60.317ZM67.268 44.5211C67.1087 44.0306 66.6707 43.6835 66.1567 43.6403L60.9201 43.2005L58.8837 38.3559C58.6838 37.8804 58.2182 37.5713 57.7025 37.5713C57.1868 37.5713 56.7213 37.8806 56.5214 38.3559L54.485 43.2005L49.2484 43.6403C48.7344 43.6835 48.2964 44.0306 48.1371 44.5211C47.9777 45.0115 48.1279 45.55 48.5184 45.8868L52.4963 49.3205L51.2965 54.4366C51.1787 54.9388 51.3735 55.4625 51.7907 55.7657C52.2079 56.0692 52.7664 56.0924 53.2074 55.8251L57.7024 53.103L62.1973 55.8251C62.4018 55.9489 62.6317 56.0104 62.861 56.0104C63.1261 56.0104 63.3905 55.9283 63.6142 55.7657C64.0314 55.4625 64.2263 54.9388 64.1085 54.4366L62.9086 49.3205L66.8865 45.8868C67.2772 45.55 67.4274 45.0117 67.268 44.5211ZM60.647 47.8879C60.286 48.1995 60.1279 48.686 60.2369 49.1505L60.918 52.0547L58.3664 50.5095C58.1625 50.3861 57.9325 50.3242 57.7027 50.3242C57.4729 50.3242 57.2429 50.3861 57.039 50.5095L54.4874 52.0547L55.1686 49.1505C55.2775 48.6862 55.1194 48.1995 54.7584 47.8879L52.5002 45.9387L55.4728 45.689C55.9482 45.6491 56.3619 45.3485 56.5469 44.9087L57.7029 42.1588L58.8589 44.9087C59.0437 45.3485 59.4575 45.6491 59.9329 45.689L62.9055 45.9387L60.647 47.8879Z" fill="url(#paint0_linear_470_259)"/>
</g>
<defs>
<linearGradient id="paint0_linear_470_259" x1="71.0002" y1="8.99993" x2="20.0002" y2="71.4999" gradientUnits="userSpaceOnUse">
<stop stop-color="#03224C"/>
<stop offset="1" stop-color="#0045A3"/>
</linearGradient>
<clipPath id="clip0_470_259">
<rect width="82" height="82" fill="white"/>
</clipPath>
</defs>
</svg>
